<mxfile host="app.diagrams.net" modified="2024-01-02T20:48:45.443Z" agent="Mozilla/5.0 (Windows NT 10.0; Win64; x64) AppleWebKit/537.36 (KHTML, like Gecko) Chrome/120.0.0.0 Safari/537.36" version="22.1.15" etag="8nBYdUCQEZdQ_ecAYdnu" type="device">
  <diagram id="Ll_qivSYwSle0fyhaXuh" name="Сторінка-1">
    <mxGraphModel dx="2415" dy="869" grid="1" gridSize="10" guides="1" tooltips="1" connect="1" arrows="1" fold="1" page="0" pageScale="1" pageWidth="827" pageHeight="1169" background="none" math="0" shadow="0">
      <root>
        <mxCell id="0" />
        <mxCell id="1" parent="0" />
        <mxCell id="lvYG5XQPU5QrbWgYbbsi-164" value="Початок" style="ellipse;whiteSpace=wrap;html=1;" vertex="1" parent="1">
          <mxGeometry x="-390" y="390" width="120" height="80" as="geometry" />
        </mxCell>
        <mxCell id="lvYG5XQPU5QrbWgYbbsi-182" style="edgeStyle=orthogonalEdgeStyle;rounded=0;orthogonalLoop=1;jettySize=auto;html=1;entryX=0.5;entryY=0;entryDx=0;entryDy=0;" edge="1" parent="1" source="lvYG5XQPU5QrbWgYbbsi-167" target="lvYG5XQPU5QrbWgYbbsi-168">
          <mxGeometry relative="1" as="geometry" />
        </mxCell>
        <mxCell id="lvYG5XQPU5QrbWgYbbsi-167" value="Введення:&lt;br&gt;String equation&lt;span style=&quot;white-space: pre;&quot;&gt;&#x9;&lt;/span&gt;" style="shape=parallelogram;perimeter=parallelogramPerimeter;whiteSpace=wrap;html=1;fixedSize=1;" vertex="1" parent="1">
          <mxGeometry x="-460" y="510" width="240" height="70" as="geometry" />
        </mxCell>
        <mxCell id="lvYG5XQPU5QrbWgYbbsi-183" style="edgeStyle=orthogonalEdgeStyle;rounded=0;orthogonalLoop=1;jettySize=auto;html=1;entryX=0.5;entryY=0;entryDx=0;entryDy=0;" edge="1" parent="1" source="lvYG5XQPU5QrbWgYbbsi-168" target="lvYG5XQPU5QrbWgYbbsi-169">
          <mxGeometry relative="1" as="geometry" />
        </mxCell>
        <mxCell id="lvYG5XQPU5QrbWgYbbsi-168" value="equation = scanner.nextLine();&lt;br&gt;int brackerCounter = 0;" style="rounded=0;whiteSpace=wrap;html=1;" vertex="1" parent="1">
          <mxGeometry x="-450" y="610" width="220" height="80" as="geometry" />
        </mxCell>
        <mxCell id="lvYG5XQPU5QrbWgYbbsi-184" style="edgeStyle=orthogonalEdgeStyle;rounded=0;orthogonalLoop=1;jettySize=auto;html=1;entryX=0.5;entryY=0;entryDx=0;entryDy=0;" edge="1" parent="1" source="lvYG5XQPU5QrbWgYbbsi-169" target="lvYG5XQPU5QrbWgYbbsi-170">
          <mxGeometry relative="1" as="geometry" />
        </mxCell>
        <mxCell id="lvYG5XQPU5QrbWgYbbsi-198" style="edgeStyle=orthogonalEdgeStyle;rounded=0;orthogonalLoop=1;jettySize=auto;html=1;entryX=0;entryY=0;entryDx=0;entryDy=0;" edge="1" parent="1" source="lvYG5XQPU5QrbWgYbbsi-169" target="lvYG5XQPU5QrbWgYbbsi-177">
          <mxGeometry relative="1" as="geometry">
            <Array as="points">
              <mxPoint x="-680" y="765" />
              <mxPoint x="-680" y="1290" />
              <mxPoint x="-378" y="1290" />
            </Array>
          </mxGeometry>
        </mxCell>
        <mxCell id="lvYG5XQPU5QrbWgYbbsi-169" value="int i=0;equation.length();1" style="shape=hexagon;perimeter=hexagonPerimeter2;whiteSpace=wrap;html=1;fixedSize=1;" vertex="1" parent="1">
          <mxGeometry x="-420" y="730" width="180" height="70" as="geometry" />
        </mxCell>
        <mxCell id="lvYG5XQPU5QrbWgYbbsi-185" style="edgeStyle=orthogonalEdgeStyle;rounded=0;orthogonalLoop=1;jettySize=auto;html=1;entryX=0.5;entryY=0;entryDx=0;entryDy=0;" edge="1" parent="1" source="lvYG5XQPU5QrbWgYbbsi-170" target="lvYG5XQPU5QrbWgYbbsi-171">
          <mxGeometry relative="1" as="geometry" />
        </mxCell>
        <mxCell id="lvYG5XQPU5QrbWgYbbsi-170" value="char currentChar = equation.charAt(i);" style="rounded=0;whiteSpace=wrap;html=1;" vertex="1" parent="1">
          <mxGeometry x="-440" y="830" width="220" height="80" as="geometry" />
        </mxCell>
        <mxCell id="lvYG5XQPU5QrbWgYbbsi-188" style="edgeStyle=orthogonalEdgeStyle;rounded=0;orthogonalLoop=1;jettySize=auto;html=1;entryX=0.5;entryY=0;entryDx=0;entryDy=0;" edge="1" parent="1" source="lvYG5XQPU5QrbWgYbbsi-171" target="lvYG5XQPU5QrbWgYbbsi-173">
          <mxGeometry relative="1" as="geometry" />
        </mxCell>
        <mxCell id="lvYG5XQPU5QrbWgYbbsi-201" style="edgeStyle=orthogonalEdgeStyle;rounded=0;orthogonalLoop=1;jettySize=auto;html=1;entryX=0;entryY=0.5;entryDx=0;entryDy=0;" edge="1" parent="1" source="lvYG5XQPU5QrbWgYbbsi-171" target="lvYG5XQPU5QrbWgYbbsi-172">
          <mxGeometry relative="1" as="geometry" />
        </mxCell>
        <mxCell id="lvYG5XQPU5QrbWgYbbsi-171" value="currentChar = &#39;(&#39;" style="rhombus;whiteSpace=wrap;html=1;" vertex="1" parent="1">
          <mxGeometry x="-550" y="950" width="150" height="100" as="geometry" />
        </mxCell>
        <mxCell id="lvYG5XQPU5QrbWgYbbsi-187" style="edgeStyle=orthogonalEdgeStyle;rounded=0;orthogonalLoop=1;jettySize=auto;html=1;entryX=0.5;entryY=0;entryDx=0;entryDy=0;" edge="1" parent="1" source="lvYG5XQPU5QrbWgYbbsi-172" target="lvYG5XQPU5QrbWgYbbsi-174">
          <mxGeometry relative="1" as="geometry" />
        </mxCell>
        <mxCell id="lvYG5XQPU5QrbWgYbbsi-204" style="edgeStyle=orthogonalEdgeStyle;rounded=0;orthogonalLoop=1;jettySize=auto;html=1;entryX=1;entryY=0.5;entryDx=0;entryDy=0;" edge="1" parent="1" source="lvYG5XQPU5QrbWgYbbsi-172" target="lvYG5XQPU5QrbWgYbbsi-175">
          <mxGeometry relative="1" as="geometry">
            <Array as="points">
              <mxPoint x="-90" y="1000" />
              <mxPoint x="-90" y="1240" />
            </Array>
          </mxGeometry>
        </mxCell>
        <mxCell id="lvYG5XQPU5QrbWgYbbsi-172" value="currentChar = &#39;)&#39;" style="rhombus;whiteSpace=wrap;html=1;" vertex="1" parent="1">
          <mxGeometry x="-270" y="950" width="150" height="100" as="geometry" />
        </mxCell>
        <mxCell id="lvYG5XQPU5QrbWgYbbsi-191" style="edgeStyle=orthogonalEdgeStyle;rounded=0;orthogonalLoop=1;jettySize=auto;html=1;entryX=0;entryY=0.5;entryDx=0;entryDy=0;" edge="1" parent="1" source="lvYG5XQPU5QrbWgYbbsi-173" target="lvYG5XQPU5QrbWgYbbsi-175">
          <mxGeometry relative="1" as="geometry" />
        </mxCell>
        <mxCell id="lvYG5XQPU5QrbWgYbbsi-202" style="edgeStyle=orthogonalEdgeStyle;rounded=0;orthogonalLoop=1;jettySize=auto;html=1;entryX=0;entryY=0.5;entryDx=0;entryDy=0;" edge="1" parent="1" source="lvYG5XQPU5QrbWgYbbsi-173" target="lvYG5XQPU5QrbWgYbbsi-172">
          <mxGeometry relative="1" as="geometry" />
        </mxCell>
        <mxCell id="lvYG5XQPU5QrbWgYbbsi-173" value="brackerCounter++;" style="rounded=0;whiteSpace=wrap;html=1;" vertex="1" parent="1">
          <mxGeometry x="-535" y="1090" width="120" height="60" as="geometry" />
        </mxCell>
        <mxCell id="lvYG5XQPU5QrbWgYbbsi-190" style="edgeStyle=orthogonalEdgeStyle;rounded=0;orthogonalLoop=1;jettySize=auto;html=1;entryX=1;entryY=0.5;entryDx=0;entryDy=0;exitX=0.5;exitY=1;exitDx=0;exitDy=0;" edge="1" parent="1" source="lvYG5XQPU5QrbWgYbbsi-174" target="lvYG5XQPU5QrbWgYbbsi-175">
          <mxGeometry relative="1" as="geometry" />
        </mxCell>
        <mxCell id="lvYG5XQPU5QrbWgYbbsi-174" value="brackerCounter--;" style="rounded=0;whiteSpace=wrap;html=1;" vertex="1" parent="1">
          <mxGeometry x="-255" y="1090" width="120" height="60" as="geometry" />
        </mxCell>
        <mxCell id="lvYG5XQPU5QrbWgYbbsi-192" style="edgeStyle=orthogonalEdgeStyle;rounded=0;orthogonalLoop=1;jettySize=auto;html=1;entryX=0.5;entryY=0;entryDx=0;entryDy=0;" edge="1" parent="1" source="lvYG5XQPU5QrbWgYbbsi-175" target="lvYG5XQPU5QrbWgYbbsi-177">
          <mxGeometry relative="1" as="geometry" />
        </mxCell>
        <mxCell id="lvYG5XQPU5QrbWgYbbsi-193" style="edgeStyle=orthogonalEdgeStyle;rounded=0;orthogonalLoop=1;jettySize=auto;html=1;exitX=1;exitY=1;exitDx=0;exitDy=0;entryX=1;entryY=0.5;entryDx=0;entryDy=0;" edge="1" parent="1" source="lvYG5XQPU5QrbWgYbbsi-175" target="lvYG5XQPU5QrbWgYbbsi-169">
          <mxGeometry relative="1" as="geometry">
            <Array as="points">
              <mxPoint x="-40" y="1265" />
              <mxPoint x="-40" y="765" />
            </Array>
          </mxGeometry>
        </mxCell>
        <mxCell id="lvYG5XQPU5QrbWgYbbsi-175" value="brackerCounter &amp;lt; 0" style="rhombus;whiteSpace=wrap;html=1;" vertex="1" parent="1">
          <mxGeometry x="-415" y="1190" width="150" height="100" as="geometry" />
        </mxCell>
        <mxCell id="lvYG5XQPU5QrbWgYbbsi-194" style="edgeStyle=orthogonalEdgeStyle;rounded=0;orthogonalLoop=1;jettySize=auto;html=1;entryX=0.75;entryY=0;entryDx=0;entryDy=0;exitX=1;exitY=0.5;exitDx=0;exitDy=0;" edge="1" parent="1" source="lvYG5XQPU5QrbWgYbbsi-177" target="lvYG5XQPU5QrbWgYbbsi-179">
          <mxGeometry relative="1" as="geometry" />
        </mxCell>
        <mxCell id="lvYG5XQPU5QrbWgYbbsi-195" style="edgeStyle=orthogonalEdgeStyle;rounded=0;orthogonalLoop=1;jettySize=auto;html=1;entryX=0.25;entryY=0;entryDx=0;entryDy=0;" edge="1" parent="1" source="lvYG5XQPU5QrbWgYbbsi-177" target="lvYG5XQPU5QrbWgYbbsi-178">
          <mxGeometry relative="1" as="geometry">
            <Array as="points">
              <mxPoint x="-535" y="1400" />
            </Array>
          </mxGeometry>
        </mxCell>
        <mxCell id="lvYG5XQPU5QrbWgYbbsi-177" value="currentChar == 0" style="rhombus;whiteSpace=wrap;html=1;" vertex="1" parent="1">
          <mxGeometry x="-415" y="1350" width="150" height="100" as="geometry" />
        </mxCell>
        <mxCell id="lvYG5XQPU5QrbWgYbbsi-197" style="edgeStyle=orthogonalEdgeStyle;rounded=0;orthogonalLoop=1;jettySize=auto;html=1;entryX=0;entryY=0.5;entryDx=0;entryDy=0;exitX=0.442;exitY=1.006;exitDx=0;exitDy=0;exitPerimeter=0;" edge="1" parent="1" source="lvYG5XQPU5QrbWgYbbsi-178" target="lvYG5XQPU5QrbWgYbbsi-180">
          <mxGeometry relative="1" as="geometry" />
        </mxCell>
        <mxCell id="lvYG5XQPU5QrbWgYbbsi-178" value="Виведення:&lt;br&gt;Дужки розставленні&amp;nbsp;&lt;br&gt;не правильно" style="shape=parallelogram;perimeter=parallelogramPerimeter;whiteSpace=wrap;html=1;fixedSize=1;" vertex="1" parent="1">
          <mxGeometry x="-580" y="1490" width="180" height="80" as="geometry" />
        </mxCell>
        <mxCell id="lvYG5XQPU5QrbWgYbbsi-196" style="edgeStyle=orthogonalEdgeStyle;rounded=0;orthogonalLoop=1;jettySize=auto;html=1;entryX=1;entryY=0.5;entryDx=0;entryDy=0;" edge="1" parent="1" source="lvYG5XQPU5QrbWgYbbsi-179" target="lvYG5XQPU5QrbWgYbbsi-180">
          <mxGeometry relative="1" as="geometry" />
        </mxCell>
        <mxCell id="lvYG5XQPU5QrbWgYbbsi-179" value="Виведення:&lt;br style=&quot;border-color: var(--border-color);&quot;&gt;Дужки розставленні&amp;nbsp;&lt;br style=&quot;border-color: var(--border-color);&quot;&gt;правильно" style="shape=parallelogram;perimeter=parallelogramPerimeter;whiteSpace=wrap;html=1;fixedSize=1;" vertex="1" parent="1">
          <mxGeometry x="-280" y="1490" width="180" height="80" as="geometry" />
        </mxCell>
        <mxCell id="lvYG5XQPU5QrbWgYbbsi-180" value="Кінець" style="ellipse;whiteSpace=wrap;html=1;" vertex="1" parent="1">
          <mxGeometry x="-430" y="1630" width="160" height="100" as="geometry" />
        </mxCell>
        <mxCell id="lvYG5XQPU5QrbWgYbbsi-181" style="edgeStyle=orthogonalEdgeStyle;rounded=0;orthogonalLoop=1;jettySize=auto;html=1;entryX=0.544;entryY=-0.032;entryDx=0;entryDy=0;entryPerimeter=0;" edge="1" parent="1" source="lvYG5XQPU5QrbWgYbbsi-164" target="lvYG5XQPU5QrbWgYbbsi-167">
          <mxGeometry relative="1" as="geometry" />
        </mxCell>
        <mxCell id="lvYG5XQPU5QrbWgYbbsi-199" value="Так" style="text;html=1;align=center;verticalAlign=middle;resizable=0;points=[];autosize=1;strokeColor=none;fillColor=none;" vertex="1" parent="1">
          <mxGeometry x="-330" y="800" width="40" height="30" as="geometry" />
        </mxCell>
        <mxCell id="lvYG5XQPU5QrbWgYbbsi-200" value="Так" style="text;html=1;align=center;verticalAlign=middle;resizable=0;points=[];autosize=1;strokeColor=none;fillColor=none;" vertex="1" parent="1">
          <mxGeometry x="-480" y="1040" width="40" height="30" as="geometry" />
        </mxCell>
        <mxCell id="lvYG5XQPU5QrbWgYbbsi-203" value="Так" style="text;html=1;align=center;verticalAlign=middle;resizable=0;points=[];autosize=1;strokeColor=none;fillColor=none;" vertex="1" parent="1">
          <mxGeometry x="-180" y="1030" width="40" height="30" as="geometry" />
        </mxCell>
        <mxCell id="lvYG5XQPU5QrbWgYbbsi-205" value="Так" style="text;html=1;align=center;verticalAlign=middle;resizable=0;points=[];autosize=1;strokeColor=none;fillColor=none;" vertex="1" parent="1">
          <mxGeometry x="-370" y="1280" width="40" height="30" as="geometry" />
        </mxCell>
        <mxCell id="lvYG5XQPU5QrbWgYbbsi-206" value="Так" style="text;html=1;align=center;verticalAlign=middle;resizable=0;points=[];autosize=1;strokeColor=none;fillColor=none;" vertex="1" parent="1">
          <mxGeometry x="-280" y="1400" width="40" height="30" as="geometry" />
        </mxCell>
        <mxCell id="lvYG5XQPU5QrbWgYbbsi-208" value="Ні" style="text;html=1;align=center;verticalAlign=middle;resizable=0;points=[];autosize=1;strokeColor=none;fillColor=none;" vertex="1" parent="1">
          <mxGeometry x="-420" y="1410" width="30" height="30" as="geometry" />
        </mxCell>
        <mxCell id="lvYG5XQPU5QrbWgYbbsi-209" value="Ні" style="text;html=1;align=center;verticalAlign=middle;resizable=0;points=[];autosize=1;strokeColor=none;fillColor=none;" vertex="1" parent="1">
          <mxGeometry x="-130" y="970" width="30" height="30" as="geometry" />
        </mxCell>
        <mxCell id="lvYG5XQPU5QrbWgYbbsi-210" value="Ні" style="text;html=1;align=center;verticalAlign=middle;resizable=0;points=[];autosize=1;strokeColor=none;fillColor=none;" vertex="1" parent="1">
          <mxGeometry x="-420" y="970" width="30" height="30" as="geometry" />
        </mxCell>
        <mxCell id="lvYG5XQPU5QrbWgYbbsi-211" value="Ні" style="text;html=1;align=center;verticalAlign=middle;resizable=0;points=[];autosize=1;strokeColor=none;fillColor=none;" vertex="1" parent="1">
          <mxGeometry x="-300" y="1260" width="30" height="30" as="geometry" />
        </mxCell>
        <mxCell id="lvYG5XQPU5QrbWgYbbsi-212" value="Ні" style="text;html=1;align=center;verticalAlign=middle;resizable=0;points=[];autosize=1;strokeColor=none;fillColor=none;" vertex="1" parent="1">
          <mxGeometry x="-450" y="730" width="30" height="30" as="geometry" />
        </mxCell>
      </root>
    </mxGraphModel>
  </diagram>
</mxfile>
